<?xml version="1.0" standalone="no"?>
<!DOCTYPE svg PUBLIC "-//W3C//DTD SVG 20010904//EN"
 "http://www.w3.org/TR/2001/REC-SVG-20010904/DTD/svg10.dtd">
<svg version="1.0" xmlns="http://www.w3.org/2000/svg"
 width="16.000000pt" height="16.000000pt" viewBox="0 0 16.000000 16.000000"
 preserveAspectRatio="xMidYMid meet">
<metadata>
Created by potrace 1.11, written by Peter Selinger 2001-2013
</metadata>
<g transform="translate(0.000000,16.000000) scale(0.000630,-0.000630)"
fill="#000000" stroke="none">
<path d="M11138 25395 c-2 -2 -187 -6 -413 -9 -688 -10 -1283 -25 -2030 -52
-245 -8 -617 -23 -755 -29 -47 -3 -146 -7 -220 -10 -74 -3 -173 -7 -220 -10
-47 -2 -139 -7 -205 -10 -66 -4 -154 -8 -195 -10 -41 -3 -122 -7 -180 -10 -58
-3 -141 -8 -185 -10 -44 -3 -125 -7 -180 -10 -55 -3 -127 -7 -160 -10 -33 -2
-107 -7 -165 -10 -160 -9 -370 -22 -470 -30 -36 -3 -99 -8 -140 -10 -172 -11
-238 -16 -290 -20 -30 -2 -91 -7 -135 -10 -44 -3 -100 -7 -125 -10 -25 -2 -85
-7 -135 -10 -49 -4 -108 -8 -130 -10 -48 -4 -183 -15 -246 -20 -88 -7 -204
-16 -239 -20 -19 -2 -73 -6 -120 -10 -47 -3 -96 -8 -110 -10 -22 -3 -141 -14
-220 -20 -80 -6 -197 -17 -210 -20 -8 -2 -53 -6 -100 -10 -47 -3 -96 -8 -110
-10 -14 -2 -54 -7 -90 -10 -36 -3 -81 -7 -100 -10 -19 -2 -62 -7 -95 -11 -33
-3 -71 -7 -85 -9 -14 -1 -54 -5 -90 -9 -36 -3 -74 -8 -85 -10 -20 -4 -144 -17
-180 -20 -20 -1 -20 -8 -20 -7126 0 -3919 3 -7159 8 -7200 4 -41 9 -88 12
-105 2 -16 11 -95 20 -175 9 -80 18 -152 20 -160 2 -8 7 -37 10 -65 3 -27 7
-61 10 -75 2 -14 7 -45 10 -70 3 -25 10 -70 15 -100 5 -30 11 -68 14 -85 10
-65 19 -121 22 -140 15 -80 27 -144 30 -170 2 -16 13 -74 24 -130 28 -138 29
-146 36 -180 20 -113 126 -557 185 -775 81 -300 241 -805 314 -995 13 -33 44
-115 69 -181 43 -116 53 -141 81 -209 110 -264 133 -318 235 -540 38 -83 259
-526 270 -540 4 -5 31 -55 60 -110 29 -55 64 -117 77 -137 13 -21 23 -39 23
-41 0 -6 152 -260 235 -392 134 -214 461 -684 556 -800 9 -11 74 -92 145 -180
106 -134 284 -346 304 -365 3 -3 43 -48 90 -100 219 -246 555 -582 810 -810
46 -41 95 -85 108 -98 14 -12 48 -41 76 -65 28 -23 66 -56 86 -73 73 -64 308
-252 385 -309 44 -33 82 -63 85 -66 14 -17 342 -250 525 -374 249 -168 543
-351 725 -453 25 -13 74 -42 110 -62 36 -21 91 -51 123 -69 31 -17 81 -44 110
-60 147 -81 578 -292 777 -381 47 -21 110 -49 140 -63 409 -187 1213 -474
1700 -607 19 -5 67 -18 105 -29 62 -18 296 -78 335 -86 8 -2 78 -18 155 -35
136 -30 302 -64 368 -75 17 -3 46 -8 62 -12 17 -3 40 -7 52 -9 12 -1 34 -5 50
-8 125 -26 217 -26 348 0 141 27 173 34 200 38 37 6 360 77 400 88 22 5 51 12
65 15 25 4 157 37 300 74 41 11 84 22 96 24 124 28 571 164 859 261 121 41
225 76 230 78 6 2 17 6 25 9 8 3 78 29 155 57 77 28 149 55 160 60 11 5 63 26
115 45 52 20 109 43 125 50 17 7 68 29 115 48 295 121 794 358 1080 513 175
95 306 167 350 194 39 23 299 179 355 213 56 33 520 343 583 389 225 163 638
481 672 518 3 3 32 28 65 55 33 28 71 60 85 72 14 12 36 31 50 43 14 12 63 56
110 98 275 250 612 588 790 792 30 35 60 69 67 75 7 7 44 50 84 96 39 46 82
96 94 111 61 70 304 380 405 518 94 127 343 493 419 615 11 17 40 63 65 103
25 40 46 75 46 78 0 3 15 28 33 57 174 273 565 1052 697 1392 4 11 15 36 24
56 97 221 267 702 371 1049 36 118 69 229 75 245 9 29 107 398 116 440 3 11 7
31 10 45 3 14 15 68 28 120 13 52 27 113 31 135 5 22 9 45 11 50 4 17 54 258
60 290 3 17 9 48 14 70 5 22 11 54 14 70 3 17 19 109 35 205 17 96 33 193 36
215 3 22 7 49 9 60 2 11 6 45 10 75 4 30 11 80 16 110 9 52 12 74 26 195 3 28
7 61 9 75 5 32 13 104 21 177 3 32 8 74 12 93 9 50 14 14330 5 14331 -5 0 -16
2 -27 4 -10 2 -58 7 -105 10 -47 4 -97 8 -111 10 -14 2 -59 6 -100 10 -41 3
-91 8 -110 10 -31 4 -105 10 -220 20 -159 13 -238 20 -330 30 -25 2 -79 7
-120 10 -41 3 -97 8 -125 10 -70 7 -146 13 -240 20 -44 3 -96 8 -115 10 -19 2
-75 7 -125 10 -49 3 -112 8 -140 10 -27 3 -81 7 -120 10 -38 3 -95 7 -125 10
-30 3 -95 7 -145 10 -49 3 -115 7 -145 10 -58 5 -121 10 -260 20 -47 3 -112 8
-145 10 -33 2 -98 7 -145 10 -47 3 -110 7 -140 10 -30 2 -104 7 -165 10 -60 3
-126 8 -145 10 -19 2 -91 7 -160 10 -69 4 -145 8 -170 10 -25 2 -99 6 -165 10
-66 3 -145 8 -175 10 -30 2 -112 7 -183 10 -70 3 -151 7 -180 10 -28 2 -110 7
-182 10 -71 3 -168 8 -215 10 -294 16 -600 30 -870 40 -74 3 -181 8 -237 10
-57 3 -169 7 -250 10 -82 3 -209 7 -283 10 -74 3 -209 7 -300 10 -91 3 -239 7
-330 10 -231 7 -467 13 -810 20 -162 4 -383 9 -490 11 -213 6 -3097 14 -3102
9z m-13 -1309 c22 -3 64 -8 94 -11 77 -8 165 -21 261 -40 254 -49 509 -126
724 -219 118 -51 269 -128 311 -160 20 -14 20 -26 20 -3010 1 -1648 -3 -2996
-7 -2996 -5 0 -44 18 -87 40 -374 188 -975 367 -1421 425 -203 26 -460 26
-650 0 -50 -7 -131 -17 -160 -20 -14 -2 -79 -13 -145 -25 -66 -12 -133 -24
-150 -27 -61 -10 -313 -62 -570 -118 -11 -2 -29 -6 -40 -9 -11 -2 -54 -12 -95
-21 -103 -21 -337 -72 -440 -95 -47 -10 -98 -21 -115 -24 -16 -2 -73 -13 -125
-24 -76 -16 -316 -61 -460 -86 -138 -23 -142 -24 -270 -41 -128 -18 -162 -22
-237 -30 -29 -3 -77 -8 -105 -11 -128 -15 -632 -26 -710 -16 l-38 4 0 3065 0
3065 78 -7 c42 -4 85 -9 96 -11 10 -2 51 -6 90 -9 39 -4 85 -8 101 -10 17 -2
73 -7 125 -10 52 -4 111 -9 130 -11 184 -18 787 -26 1000 -11 179 11 247 20
406 51 76 15 176 45 284 86 238 90 535 177 785 230 22 5 51 11 65 14 13 3 42
8 65 11 22 3 47 8 55 10 8 2 31 6 50 9 19 2 71 10 115 16 128 18 135 18 235
26 52 3 97 8 99 10 6 6 590 -4 636 -10z m3995 0 c25 -3 68 -8 95 -12 28 -4 59
-8 70 -10 114 -15 254 -52 480 -128 320 -108 731 -212 955 -240 25 -3 54 -8
65 -10 38 -7 138 -21 220 -31 28 -3 66 -8 85 -10 19 -3 67 -8 105 -11 39 -3
84 -7 100 -9 33 -4 193 -13 355 -20 207 -10 697 -4 845 9 33 3 98 8 145 12 86
6 99 7 205 18 l60 7 0 -3050 0 -3050 -25 -5 c-28 -5 -474 1 -530 8 -19 2 -80
7 -135 11 -55 4 -102 8 -105 10 -3 2 -43 6 -90 10 -47 4 -87 8 -90 10 -3 2
-39 6 -80 10 -41 4 -77 8 -80 10 -3 2 -30 6 -60 9 -30 3 -66 8 -79 11 -12 2
-42 6 -65 9 -23 3 -166 26 -317 51 -151 25 -287 48 -304 51 -16 2 -61 11 -100
19 -38 8 -86 17 -105 20 -19 3 -71 13 -115 21 -44 8 -91 17 -105 20 -115 21
-450 86 -470 90 -14 3 -38 8 -55 11 -16 3 -61 11 -100 19 -38 9 -92 19 -120
24 -27 5 -99 18 -160 30 -60 12 -121 23 -135 26 -33 6 -224 40 -275 49 -22 4
-50 9 -62 11 -26 5 -45 8 -168 23 -49 7 -108 14 -130 17 -42 6 -359 5 -435 -1
-88 -6 -185 -15 -220 -20 -80 -10 -187 -25 -210 -29 -14 -3 -38 -7 -55 -9 -16
-3 -50 -10 -75 -15 -25 -6 -56 -13 -70 -16 -100 -18 -305 -79 -445 -130 -127
-47 -360 -161 -447 -219 -38 -25 -68 -39 -70 -33 -2 6 -3 1352 -3 2990 l1
2980 95 39 c52 22 108 45 124 52 112 49 556 194 675 220 8 2 60 15 115 29 93
23 329 71 399 81 155 22 268 35 356 41 58 4 106 8 108 9 5 4 386 -4 432 -9z
m-10165 -1491 c221 -55 385 -223 445 -455 15 -59 18 -101 16 -195 -5 -195 -59
-327 -182 -452 -121 -121 -279 -182 -464 -177 -136 3 -203 19 -312 76 -206
106 -330 347 -315 607 11 184 68 320 184 438 148 151 402 214 628 158z m14231
-234 c15 -15 242 -88 328 -106 114 -23 177 -29 294 -27 121 1 209 18 399 74
123 36 149 41 240 40 210 -1 404 -79 533 -214 80 -85 154 -227 185 -359 20
-87 19 -92 -13 -60 -32 32 -118 67 -188 76 -113 14 -281 -2 -349 -35 -61 -29
-351 -168 -485 -232 -346 -167 -557 -251 -745 -294 -76 -17 -219 -24 -232 -11
-4 5 -8 267 -8 583 -1 520 1 574 15 574 9 0 20 -4 26 -9z m-12760 -467 l2
-371 -379 0 -379 -1 0 368 c0 201 2 369 5 372 3 3 173 5 378 4 l372 -1 1 -371z
m-1423 -1917 c292 -101 452 -379 413 -717 -12 -96 -68 -240 -121 -308 -39 -52
-133 -133 -182 -159 -118 -63 -187 -78 -343 -77 -135 0 -212 18 -320 71 -148
75 -283 252 -315 413 -46 236 7 450 151 608 83 92 218 169 329 186 21 4 41 9
44 11 2 3 63 4 135 2 112 -3 143 -7 209 -30z m14233 -69 c95 -38 275 -61 474
-61 102 0 329 11 370 17 14 3 54 7 90 10 36 3 81 8 100 11 19 2 57 7 85 11 27
3 70 9 96 13 77 12 199 3 271 -20 203 -65 352 -245 433 -524 35 -122 34 -130
-13 -96 -40 28 -139 67 -207 81 -174 36 -342 8 -469 -79 -25 -17 -47 -31 -49
-31 -3 0 -34 -17 -69 -39 -212 -128 -556 -266 -818 -326 -95 -21 -246 -46
-317 -51 l-89 -6 0 575 0 575 35 -22 c20 -12 54 -30 77 -38z m-12808 -608 l0
-370 -27 -1 c-14 -1 -185 -2 -378 -2 l-353 -2 0 373 0 372 379 0 379 0 0 -370z
m6395 -2434 c123 -24 196 -49 425 -148 176 -76 295 -120 357 -133 148 -31 288
-20 404 31 30 14 56 22 59 20 10 -10 2 -104 -12 -137 -19 -46 -63 -93 -116
-123 l-43 -24 58 -7 c169 -22 306 24 410 137 31 33 62 72 68 85 16 36 25 28
33 -33 30 -240 -79 -395 -331 -473 -38 -12 -81 -24 -95 -26 -14 -2 -56 -10
-93 -16 l-69 -12 55 -23 c144 -58 218 -141 232 -260 16 -134 53 -228 112 -290
65 -66 146 -92 230 -73 21 4 39 7 40 6 1 -2 -8 -25 -21 -52 -66 -140 -199
-160 -353 -53 -70 48 -82 22 -31 -69 69 -126 91 -189 103 -293 3 -25 7 -67 11
-95 5 -46 18 -131 30 -196 26 -139 125 -281 255 -365 l51 -32 -26 -17 c-38
-25 -105 -21 -167 11 -30 14 -95 67 -151 122 -54 52 -101 92 -105 89 -3 -4 10
-39 30 -79 19 -40 40 -89 46 -108 47 -161 17 -405 -83 -671 -20 -53 -36 -102
-36 -107 0 -23 -20 -21 -59 4 -26 18 -61 59 -99 118 -65 98 -106 144 -177 195
-37 26 -46 30 -51 17 -6 -16 20 -68 93 -186 58 -96 119 -270 139 -400 3 -19 8
-46 11 -60 11 -50 12 -347 1 -388 -9 -37 -13 -42 -32 -36 -37 11 -91 73 -139
158 -49 87 -131 196 -148 196 -6 0 -8 -21 -5 -52 10 -119 59 -271 123 -388 46
-84 56 -96 171 -215 120 -123 164 -176 234 -285 100 -155 171 -310 187 -406 9
-58 7 -284 -4 -354 -2 -19 -7 -60 -10 -90 -3 -31 -7 -64 -9 -75 -8 -45 -18
-116 -46 -335 -12 -90 -23 -166 -25 -168 -9 -9 -68 33 -102 73 -43 52 -61 83
-145 247 -83 161 -101 175 -100 70 2 -172 131 -451 284 -617 65 -71 92 -146
136 -375 22 -120 9 -334 -23 -360 -19 -16 -46 17 -107 125 -70 125 -125 207
-154 228 -30 22 -60 15 -49 -11 34 -83 119 -348 145 -449 52 -207 74 -372 74
-548 -1 -239 -34 -388 -157 -694 l-54 -133 -22 88 c-22 85 -26 104 -35 149 -6
31 -67 288 -122 514 -3 16 -21 84 -29 111 -18 67 -35 132 -35 135 0 22 -79
-47 -141 -125 -20 -25 -91 -126 -157 -225 -76 -114 -151 -213 -206 -270 -82
-87 -85 -89 -86 -60 -2 60 -19 244 -25 274 -2 13 -9 55 -14 94 -6 40 -13 83
-16 97 -3 14 -7 39 -9 55 -3 17 -12 66 -21 110 -10 44 -19 89 -21 100 -9 51
-88 359 -110 435 -37 124 -102 311 -135 394 -33 79 -109 216 -120 216 -10 0
-84 -194 -423 -1100 -140 -374 -203 -558 -211 -615 -2 -11 -10 -47 -18 -80
-16 -62 -33 -157 -42 -235 -3 -25 -8 -61 -11 -80 -9 -61 -12 -422 -3 -500 12
-113 18 -160 29 -215 6 -27 12 -59 14 -70 17 -88 75 -271 103 -327 24 -48 6
-30 -35 35 -153 241 -281 593 -341 937 -37 209 -46 314 -45 535 0 196 5 253
34 391 44 211 135 370 245 429 36 20 36 20 39 110 4 89 -39 241 -81 287 -9 10
-26 18 -38 18 -24 0 -27 -9 -40 -135 -3 -27 -8 -57 -10 -65 -2 -8 -7 -31 -10
-50 -6 -38 -64 -161 -92 -197 l-18 -23 -50 24 c-67 31 -112 77 -143 145 -39
83 -38 230 2 398 16 68 37 131 45 140 36 40 122 162 156 223 104 182 117 319
39 401 -38 39 -57 37 -73 -8 -52 -149 -113 -244 -179 -281 l-41 -23 -26 51
c-29 58 -81 208 -90 260 -3 19 -8 49 -12 65 -10 48 -10 266 -1 346 13 109 42
241 78 349 40 123 44 132 117 280 89 181 218 371 350 518 44 48 55 90 31 110
-19 14 -42 2 -158 -83 -120 -88 -185 -124 -232 -127 l-33 -3 -1 125 c-2 114 1
158 21 290 10 64 59 214 94 286 149 309 404 477 761 503 18 2 5 9 -42 25 -109
38 -147 67 -180 138 l-17 37 47 7 c43 6 216 35 287 49 17 3 37 8 45 11 8 3 25
8 38 10 41 8 176 65 227 96 164 100 235 212 240 378 1 47 -1 98 -4 114 l-6 29
-37 -46 c-21 -25 -38 -49 -38 -54 0 -16 -123 -137 -173 -172 -144 -98 -279
-114 -358 -40 -37 35 -36 42 5 57 46 17 120 84 141 128 54 114 -6 236 -137
280 -54 18 -181 18 -243 0 -149 -43 -340 74 -375 229 l-8 35 32 -23 c26 -19
43 -22 111 -21 98 1 163 23 293 100 244 142 445 146 639 13 74 -51 189 -171
231 -241 21 -35 27 -35 41 1 33 78 28 209 -11 291 -32 67 -131 159 -213 199
-66 32 -165 68 -210 77 -11 2 -34 7 -51 10 -26 5 -35 16 -65 77 -85 178 -205
283 -384 336 -86 25 -127 30 -231 31 l-81 0 -12 43 c-35 115 -125 232 -210
270 -161 71 -374 -48 -415 -234 l-11 -49 -56 53 c-64 61 -110 125 -136 188
-27 66 -24 216 5 291 26 65 79 146 143 219 73 83 237 199 282 199 29 0 68 -60
113 -175 47 -119 85 -185 122 -211 26 -18 99 -26 122 -14 24 13 20 30 -26 121
-105 210 -116 317 -36 353 36 16 63 20 110 17 12 0 47 -25 79 -55 31 -30 61
-57 67 -59 26 -10 54 15 84 74 93 188 327 304 590 292 41 -2 84 -5 95 -7z
m-3919 -381 c102 -20 223 -82 294 -149 110 -103 207 -309 229 -486 3 -25 9
-65 14 -90 9 -49 5 -431 -6 -495 -4 -22 -10 -60 -15 -84 -11 -61 4 -103 54
-149 78 -72 200 -119 334 -129 45 -3 82 -9 82 -13 0 -33 -94 -183 -150 -237
-70 -69 -119 -87 -230 -87 -86 -1 -106 3 -215 42 -111 38 -150 47 -198 43 -11
0 -26 -18 -39 -47 -23 -54 -51 -84 -132 -145 -199 -148 -247 -242 -225 -447 9
-85 29 -125 84 -174 53 -47 70 -100 70 -226 l0 -94 -39 -35 c-45 -42 -56 -77
-50 -171 7 -121 53 -195 139 -223 73 -23 236 -8 395 36 165 47 378 95 442 102
146 15 218 -6 378 -108 102 -66 152 -88 209 -92 75 -6 86 13 85 153 0 58 -4
121 -8 142 -10 56 -65 107 -176 167 -128 68 -232 157 -265 227 -53 113 0 371
135 649 27 55 68 129 91 165 l43 65 14 -50 c88 -314 209 -467 544 -686 194
-127 273 -186 345 -258 145 -144 224 -310 268 -564 23 -131 19 -166 -41 -357
-48 -152 -64 -230 -64 -317 0 -102 15 -165 67 -272 28 -60 42 -99 37 -106 -87
-115 -152 -263 -203 -455 -50 -191 -66 -328 -64 -530 3 -280 71 -510 202 -684
l50 -66 -24 -92 c-35 -140 -43 -211 -40 -338 4 -125 5 -136 36 -235 37 -120
108 -228 208 -315 l59 -52 -18 -42 c-48 -108 -78 -291 -73 -447 2 -89 27 -277
45 -344 5 -22 12 -47 13 -55 2 -8 13 -45 23 -82 23 -80 11 -90 -40 -36 -38 41
-62 88 -143 288 -156 386 -270 575 -461 766 -217 215 -506 353 -849 405 -106
16 -272 22 -279 10 -11 -18 -13 -99 -4 -158 11 -69 59 -144 193 -303 174 -208
217 -336 219 -655 1 -268 -13 -332 -67 -304 -28 15 -39 27 -111 119 -69 89
-89 108 -181 181 -79 64 -142 129 -178 185 -50 81 -112 274 -132 417 -4 26 -9
47 -12 47 -9 0 -66 -50 -142 -123 -183 -179 -310 -391 -367 -617 -22 -89 -23
-96 -33 -170 -11 -82 -11 -336 0 -415 4 -33 7 -60 6 -62 -1 -1 -31 76 -67 170
-35 95 -101 266 -147 381 l-82 209 22 31 c39 56 184 244 314 406 79 99 300
389 354 466 72 101 361 642 434 814 37 86 45 109 48 144 10 105 -218 -162
-693 -808 -52 -72 -102 -140 -110 -152 -21 -32 -462 -647 -470 -657 -3 -4 -30
48 -60 115 -76 178 -135 299 -186 385 l-45 76 48 61 c26 34 54 67 61 75 36 38
248 329 313 431 109 172 383 754 439 932 21 66 10 87 -24 46 -12 -14 -30 -36
-40 -49 -39 -47 -226 -329 -391 -589 -183 -289 -238 -375 -297 -463 -21 -32
-38 -62 -38 -67 0 -5 -3 -10 -7 -12 -5 -1 -32 -39 -60 -83 -29 -44 -70 -99
-90 -123 l-38 -42 -90 86 c-102 98 -138 124 -177 124 -34 0 -35 -1 -43 -80 -7
-67 -22 -142 -50 -245 -10 -36 -17 -109 -19 -183 l-3 -123 -59 -72 c-154 -188
-402 -430 -610 -596 -102 -81 -121 -92 -121 -68 0 14 -13 147 -18 192 -2 17
-7 68 -11 115 -3 46 -8 96 -10 110 -2 14 -4 58 -4 97 -2 78 0 82 73 163 18 19
66 73 107 120 41 47 77 87 80 90 3 3 37 41 75 85 39 44 86 98 107 120 29 32
130 152 237 280 19 23 120 176 145 220 10 17 42 68 71 115 103 162 163 262
267 442 124 216 168 311 149 322 -20 13 -95 -61 -271 -264 -106 -123 -525
-641 -675 -834 -16 -22 -45 -57 -63 -80 -17 -23 -36 -45 -40 -51 -76 -101
-302 -384 -312 -390 -5 -3 -10 0 -10 8 0 43 -104 199 -218 326 -37 41 -66 79
-64 85 3 10 63 97 72 106 11 10 220 310 333 478 193 286 274 433 427 777 10
22 31 69 48 105 16 36 39 92 51 125 13 33 27 70 32 83 14 34 11 72 -5 72 -29
0 -175 -193 -403 -535 -125 -188 -224 -342 -591 -915 -136 -213 -131 -207
-175 -186 -19 9 -40 16 -46 16 -18 0 -28 33 -26 90 3 68 19 221 31 285 2 11
11 62 19 113 9 52 19 113 24 135 6 23 12 60 15 82 4 23 9 52 11 65 3 14 7 36
10 50 3 14 7 36 10 50 12 53 24 117 29 155 4 23 9 52 11 65 3 14 6 56 7 93 2
115 -30 115 -90 -1 -57 -110 -133 -345 -168 -522 -3 -14 -11 -52 -19 -85 -7
-33 -16 -80 -20 -105 -3 -25 -8 -52 -10 -60 -2 -8 -7 -35 -10 -60 -3 -25 -8
-52 -10 -60 -3 -13 -15 -114 -31 -259 -2 -18 -5 -35 -6 -37 -2 -1 -46 -10 -98
-18 -52 -9 -122 -23 -155 -32 -67 -18 -155 -60 -155 -73 0 -23 42 -140 54
-150 7 -6 35 -22 61 -36 26 -14 56 -36 67 -48 34 -39 87 -160 97 -222 9 -58 7
-248 -3 -283 -2 -9 -7 -39 -11 -67 -8 -62 -13 -101 -27 -185 -16 -103 -17
-306 -2 -393 22 -124 65 -208 187 -369 37 -49 42 -61 39 -97 l-4 -41 -79 3
c-145 7 -235 -23 -311 -105 -31 -35 -37 -38 -42 -22 -18 59 -114 569 -131 704
-22 166 -27 207 -41 345 -15 151 -19 301 -19 670 0 237 4 507 9 600 5 94 10
199 11 235 4 94 15 241 20 270 2 14 6 55 10 92 3 37 7 75 9 85 2 10 7 45 11
78 9 81 9 83 39 300 51 373 58 495 27 495 -27 0 -210 -414 -546 -1235 -32 -77
-62 -151 -68 -165 -5 -14 -11 -29 -13 -35 -4 -13 -111 -274 -124 -300 -5 -11
-57 -139 -116 -285 -58 -146 -154 -380 -211 -520 -58 -140 -116 -280 -128
-310 -68 -169 -229 -542 -242 -559 -1 -2 -18 6 -36 19 -39 27 -71 91 -90 182
-14 64 -16 282 -4 363 4 22 9 60 12 85 5 44 20 134 29 176 2 12 7 37 10 55 9
54 12 68 55 235 22 88 54 204 71 259 17 55 33 109 35 120 7 29 104 314 120
350 7 17 16 41 20 55 20 66 181 455 252 610 66 140 197 405 233 470 21 36 56
101 80 145 23 44 46 85 51 91 4 5 38 59 74 119 96 158 269 406 323 464 34 36
43 117 15 128 -46 18 -146 -72 -589 -527 -125 -129 -203 -204 -290 -280 -476
-417 -768 -555 -1086 -516 -29 4 -59 10 -66 15 -13 8 352 374 668 671 85 80
173 163 196 185 23 22 102 96 175 165 277 260 351 331 600 580 241 240 359
373 395 442 34 65 -3 54 -216 -68 -475 -273 -867 -397 -1255 -397 -111 0 -151
3 -260 18 -80 11 -245 54 -245 64 0 3 112 66 248 139 137 73 324 176 418 228
93 53 194 109 224 126 127 72 348 209 535 333 592 392 884 698 907 950 4 40
-19 43 -71 10 -23 -14 -108 -59 -189 -100 -572 -287 -1072 -414 -1472 -372
-100 10 -261 48 -285 66 -5 5 -23 11 -39 15 -34 8 -30 13 49 56 60 33 534 318
735 441 121 75 723 451 820 512 386 244 963 611 1030 655 47 30 108 70 135 87
71 46 274 178 378 246 79 52 91 56 119 48 53 -15 227 -5 278 16 39 16 150 81
150 88 0 1 -33 -1 -72 -4 -89 -7 -342 -4 -381 5 -102 24 -171 71 -199 134 -37
82 -24 172 45 321 l29 63 33 -69 c19 -38 48 -81 65 -97 43 -38 118 -74 177
-86 43 -8 256 -6 293 3 8 2 33 7 55 11 22 5 67 15 100 23 33 8 67 16 75 18 18
4 315 103 535 178 144 50 266 80 365 90 45 4 197 -1 234 -8z m8641 -8 c11 -3
42 -8 69 -11 27 -4 52 -9 55 -11 3 -1 22 -6 41 -9 151 -24 460 -124 700 -226
160 -69 248 -97 351 -114 82 -13 197 -14 267 -2 41 8 42 7 42 -21 0 -27 -28
-83 -53 -107 -44 -41 -109 -64 -207 -73 -98 -8 -134 -23 -138 -55 -3 -21 3
-30 26 -42 30 -15 83 -29 152 -40 148 -22 469 -151 705 -283 100 -56 260 -168
302 -212 39 -40 56 -80 36 -82 -5 0 -19 -2 -33 -4 -14 -1 -46 1 -72 5 -27 4
-48 6 -48 5 0 -1 96 -99 213 -216 240 -242 261 -265 374 -404 44 -55 194 -210
333 -345 138 -135 309 -300 378 -368 70 -68 191 -186 270 -262 78 -76 142
-143 142 -148 0 -44 -179 7 -323 90 -26 15 -52 28 -57 28 -6 0 -10 5 -10 10 0
6 -5 10 -11 10 -16 0 -257 166 -374 257 -5 5 -30 24 -55 43 -25 19 -47 37 -50
40 -3 3 -39 32 -80 65 -41 33 -77 62 -80 65 -3 3 -54 48 -115 100 -60 52 -115
99 -121 105 -6 5 -29 26 -50 45 -22 19 -93 85 -159 145 -116 106 -120 109
-123 82 -6 -49 68 -163 192 -296 116 -125 246 -261 439 -461 235 -243 272
-282 477 -505 46 -50 177 -199 215 -244 11 -14 34 -41 51 -60 17 -20 79 -97
138 -171 260 -326 380 -503 581 -854 l28 -49 -54 6 c-169 20 -630 217 -886
377 -117 74 -168 114 -249 194 -143 144 -279 337 -603 854 -274 438 -403 606
-503 656 -40 20 -53 22 -77 13 -26 -10 -28 -13 -17 -36 6 -14 18 -37 27 -51 9
-14 52 -85 95 -158 44 -73 86 -145 95 -160 9 -15 67 -110 129 -212 307 -505
573 -947 616 -1025 12 -22 51 -90 87 -152 36 -62 77 -132 90 -155 136 -245
205 -373 234 -437 19 -42 43 -94 53 -116 163 -358 297 -889 311 -1230 12 -308
2 -1194 -16 -1345 -2 -19 -7 -66 -10 -105 -7 -79 -10 -104 -31 -230 -41 -243
-112 -399 -184 -407 -22 -3 -26 4 -57 112 -30 104 -140 503 -148 540 -2 8 -32
132 -68 275 -35 143 -74 301 -85 350 -22 90 -74 308 -132 550 -17 72 -34 141
-36 155 -9 48 -154 631 -185 742 -17 62 -33 122 -35 133 -7 38 -124 435 -165
562 -197 611 -406 1051 -635 1336 -104 128 -97 97 76 -348 225 -578 365 -983
484 -1405 48 -172 122 -467 145 -583 41 -201 75 -389 85 -469 3 -21 8 -53 11
-70 7 -43 13 -96 20 -183 4 -38 8 -81 11 -95 2 -14 6 -77 9 -140 4 -63 8 -127
9 -141 2 -15 1 -31 -3 -36 -3 -5 -44 -22 -91 -37 -339 -111 -682 -300 -800
-442 l-26 -30 1 265 c0 331 -12 532 -46 791 -5 42 -12 94 -14 115 -5 35 -13
92 -31 200 -2 17 -12 68 -20 115 -9 47 -18 96 -21 110 -78 424 -291 1126 -373
1230 -34 43 -42 12 -36 -140 3 -74 7 -144 10 -155 2 -11 7 -54 11 -95 4 -41 8
-77 10 -80 1 -3 6 -32 9 -65 6 -55 60 -441 71 -510 3 -16 7 -43 10 -60 3 -16
7 -50 10 -75 3 -25 7 -56 10 -70 2 -14 7 -45 10 -70 5 -46 15 -113 20 -140 2
-8 8 -58 14 -110 7 -52 14 -108 16 -125 14 -103 16 -159 7 -150 -6 6 -72 87
-147 180 -75 94 -141 177 -148 185 -7 8 -39 49 -72 90 -33 41 -62 77 -65 80
-3 3 -37 43 -75 90 -38 47 -74 90 -80 96 -5 6 -26 30 -45 54 -241 300 -510
580 -557 580 -43 0 58 -222 244 -536 37 -63 77 -132 89 -152 182 -322 451
-630 792 -907 l82 -67 1 -52 c3 -122 -6 -375 -16 -457 -9 -65 -16 -115 -20
-139 -3 -14 -7 -35 -9 -47 -16 -80 -40 -143 -56 -143 -17 0 -153 129 -244 230
-57 65 -426 503 -656 780 -89 107 -169 204 -179 215 -9 11 -39 47 -66 80 -28
33 -62 74 -76 90 -15 17 -75 86 -134 155 -136 158 -333 355 -363 362 -15 4
-25 2 -28 -6 -15 -39 111 -306 288 -615 26 -46 48 -85 48 -87 0 -6 152 -258
164 -270 6 -7 49 -58 96 -112 90 -106 520 -538 805 -809 94 -88 196 -186 228
-217 l57 -56 -39 -77 c-41 -82 -161 -267 -205 -318 -15 -16 -45 -49 -68 -73
-36 -37 -44 -41 -59 -30 -38 27 -399 305 -496 382 l-101 81 -12 70 c-43 252
-67 316 -132 345 -52 23 -102 18 -191 -21 -66 -29 -71 -30 -83 -14 -7 10 -36
43 -63 74 -27 31 -59 67 -71 81 -152 177 -433 469 -554 573 -150 132 -196 120
-131 -32 69 -163 241 -452 343 -576 41 -51 143 -154 185 -188 78 -62 107 -89
107 -98 0 -4 -20 -39 -44 -76 -84 -130 -206 -400 -206 -455 0 -8 -6 -23 -14
-33 -13 -19 -15 -18 -47 7 -55 42 -75 60 -299 281 -119 117 -245 237 -280 268
-188 162 -221 132 -112 -101 55 -118 98 -178 196 -275 104 -104 183 -169 352
-290 65 -48 122 -91 125 -98 9 -16 -111 -381 -147 -447 -38 -70 -259 -283
-515 -495 -51 -42 -165 -138 -189 -158 -119 -102 -340 -275 -340 -266 0 22 94
239 147 339 182 343 392 560 683 707 52 26 97 51 98 56 2 4 9 7 16 7 7 0 22 9
33 19 20 19 20 22 7 61 -33 96 -97 180 -161 214 -71 36 -233 40 -448 10 -72
-11 -79 -11 -135 -18 l-55 -7 1 73 c2 86 -4 127 -56 398 -22 113 -42 219 -45
235 -2 17 -7 41 -10 54 -6 31 -23 161 -30 224 -3 26 -7 67 -10 92 -2 25 -5 79
-6 120 -1 72 -2 75 -26 75 -100 0 -396 -227 -496 -380 -33 -51 -36 -63 -42
-153 -3 -53 -8 -107 -10 -120 -2 -12 -6 -44 -10 -72 -29 -231 -72 -350 -194
-532 -90 -136 -147 -253 -192 -400 -11 -35 -22 -63 -25 -63 -7 0 -64 123 -69
151 -3 13 -8 38 -11 54 -4 17 -8 134 -10 260 -1 127 -5 241 -8 255 -3 14 -9
39 -12 55 -10 46 -50 119 -108 199 -186 255 -267 488 -302 866 -4 41 -8 81 -9
89 -1 8 15 31 35 51 120 120 180 376 143 610 -16 106 -29 157 -63 261 -28 83
-30 101 -30 227 0 131 3 193 15 327 4 54 8 81 20 180 2 17 7 53 10 80 3 28 8
59 10 70 2 11 7 49 10 85 4 36 10 92 15 125 9 67 6 323 -4 370 -36 161 -100
303 -192 425 -32 41 -105 124 -164 183 l-107 109 17 36 c29 62 50 164 76 362
9 69 17 126 19 128 1 2 18 -6 36 -17 69 -40 167 -64 239 -59 124 9 180 73 266
298 82 217 97 240 197 303 161 103 240 224 230 357 -5 73 -26 138 -79 239 -24
46 -44 85 -44 87 0 9 117 -33 200 -73 120 -58 217 -149 244 -229 18 -54 24
-138 13 -195 -9 -51 -54 -173 -88 -242 -63 -124 -86 -205 -68 -239 23 -42 63
-51 218 -45 151 5 170 8 271 36 140 40 263 133 350 264 46 70 63 118 90 258
37 197 97 303 262 472 108 110 128 150 122 239 -6 95 -74 161 -207 199 -27 8
-54 22 -59 33 -10 18 -6 152 6 206 3 14 8 37 12 53 3 15 3 27 -1 27 -3 0 -43
-39 -88 -87 -192 -204 -262 -269 -317 -296 -69 -34 -89 -38 -163 -38 -73 1
-131 15 -227 56 -176 75 -287 73 -441 -5 -32 -16 -59 -29 -60 -27 -8 16 -3 91
8 122 21 60 67 101 147 131 354 131 556 275 581 416 9 48 -19 143 -51 175 -23
23 -25 32 -23 101 3 116 30 172 167 349 192 246 346 354 517 362 46 2 146 -23
193 -48 14 -7 34 1 96 44 86 60 134 84 251 128 166 62 196 67 365 63 85 -2
164 -6 175 -9z m-6855 -779 c1 -198 121 -333 325 -365 64 -10 310 -9 490 2
252 15 395 11 520 -16 50 -11 60 -14 126 -43 88 -39 190 -138 238 -234 l22
-43 -39 25 c-95 60 -232 87 -412 81 -74 -2 -151 -7 -170 -10 -74 -12 -156 -25
-175 -29 -11 -2 -36 -6 -55 -10 -19 -3 -44 -8 -55 -10 -76 -15 -196 -36 -230
-41 -22 -4 -69 -11 -105 -16 -83 -13 -261 -13 -325 0 -155 31 -253 96 -336
224 -95 146 -58 308 109 480 31 31 60 57 64 57 4 0 8 -24 8 -52z m2108 -6003
c76 -227 122 -404 147 -565 3 -19 10 -60 16 -90 6 -30 12 -138 14 -240 3 -188
-4 -261 -40 -400 -58 -221 -58 -442 0 -820 2 -14 6 -47 10 -75 8 -62 15 -70
16 -19 0 21 2 48 4 59 2 11 7 40 11 65 67 417 237 761 500 1017 108 105 184
160 185 135 1 -36 12 -81 66 -267 110 -380 140 -534 141 -725 1 -313 -64 -485
-367 -965 -138 -219 -179 -302 -195 -387 -25 -143 -25 -150 -31 -428 -6 -273
-4 -276 49 -90 30 104 112 353 126 385 5 11 21 49 36 85 61 149 152 307 239
415 146 180 266 427 319 657 15 64 49 267 70 413 23 154 96 360 176 490 75
122 178 251 180 225 2 -16 3 -21 19 -93 12 -52 46 -123 86 -183 43 -64 60
-150 60 -314 0 -103 -5 -165 -19 -225 -2 -11 -9 -40 -15 -65 -36 -158 -147
-408 -289 -650 -164 -279 -175 -307 -121 -303 43 3 131 38 190 76 144 92 257
259 314 462 15 55 31 106 35 114 5 9 18 -12 38 -60 115 -280 107 -438 -29
-532 -253 -175 -388 -351 -434 -565 -15 -72 -14 -269 1 -309 9 -21 12 -19 59
39 28 34 57 69 66 77 24 25 210 249 261 316 127 167 229 345 281 491 45 125
59 217 59 369 -1 202 12 241 173 495 77 122 147 254 188 356 46 115 99 342
113 489 8 82 30 150 72 215 37 58 131 154 178 182 l29 16 1 -121 c1 -104 17
-228 48 -384 3 -11 8 -43 12 -70 3 -26 8 -57 10 -68 8 -37 18 -170 18 -230 0
-96 -12 -194 -35 -275 -21 -77 -93 -232 -129 -277 -51 -65 -4 -57 106 18 253
174 389 231 553 232 93 0 141 -5 182 -21 15 -6 29 -10 31 -9 2 1 1 -1 -2 -4
-3 -3 -36 -14 -74 -23 -285 -70 -494 -254 -646 -570 -26 -56 -85 -193 -131
-306 -182 -453 -334 -677 -560 -831 -102 -68 -162 -135 -203 -225 -21 -43 -41
-87 -47 -96 -13 -25 -12 -28 11 -28 73 0 279 63 370 113 19 11 53 29 75 40 53
28 194 128 275 196 106 89 259 246 419 434 91 107 105 118 346 282 88 60 166
114 173 120 7 5 18 15 25 20 7 6 28 22 47 35 111 78 262 235 343 356 122 183
258 508 329 782 22 85 51 180 65 211 27 59 95 168 132 211 107 126 137 159
143 159 43 4 75 -298 54 -509 -9 -97 -48 -324 -70 -417 -4 -13 -8 -32 -11 -43
-3 -11 -7 -28 -9 -37 -29 -126 -87 -311 -122 -389 -23 -52 -126 -221 -143
-234 -4 -3 -26 -30 -49 -60 -24 -30 -82 -96 -129 -147 -161 -173 -157 -177 72
-73 94 42 450 222 530 268 518 294 839 557 1076 882 61 84 146 215 236 365
181 303 270 416 418 532 65 51 226 161 290 198 28 16 64 37 80 47 151 87 435
204 435 179 0 -11 -28 -49 -111 -151 -147 -182 -192 -270 -204 -400 -14 -165
-21 -204 -51 -318 -42 -161 -116 -327 -237 -527 -61 -101 -65 -111 -49 -123
30 -24 92 -8 183 47 93 55 177 90 212 86 12 -1 31 -3 42 -4 11 -1 38 -12 59
-25 l39 -23 -64 -33 c-124 -62 -204 -138 -380 -360 -283 -358 -603 -566 -1044
-679 -111 -29 -250 -59 -310 -66 -27 -4 -53 -9 -56 -11 -3 -1 -28 -6 -55 -9
-27 -4 -60 -8 -74 -10 -58 -9 -319 -46 -360 -50 -284 -33 -664 -122 -875 -207
-350 -140 -512 -232 -974 -556 -559 -393 -826 -536 -1161 -624 -216 -57 -336
-197 -170 -198 14 0 70 -26 125 -58 128 -74 211 -114 305 -145 139 -46 210
-58 360 -58 238 0 424 59 745 235 61 34 112 61 115 61 3 0 55 27 115 60 228
123 295 158 475 249 182 92 309 150 315 144 2 -2 -52 -60 -118 -129 -67 -69
-149 -156 -182 -194 -33 -37 -65 -73 -70 -79 -6 -6 -55 -60 -110 -121 -328
-364 -499 -485 -870 -615 -146 -51 -442 -129 -554 -146 -20 -3 -43 -7 -51 -9
-8 -2 -37 -7 -65 -11 -27 -3 -52 -7 -55 -9 -3 -2 -34 -6 -70 -10 -36 -4 -74
-9 -84 -11 -125 -24 -592 -24 -776 1 -14 1 -47 6 -75 9 -27 4 -84 13 -125 20
-109 20 -238 13 -335 -18 -138 -44 -290 -149 -340 -233 -27 -46 -13 -54 70
-38 107 21 254 14 342 -17 75 -27 195 -104 213 -138 6 -11 45 -46 88 -78 300
-228 533 -298 737 -221 82 30 136 68 232 165 66 66 100 90 175 128 261 128
546 117 803 -32 33 -20 62 -38 65 -41 3 -3 23 -19 45 -36 53 -39 115 -96 115
-106 0 -4 -8 -6 -18 -4 -32 6 -113 -14 -171 -42 -76 -37 -185 -147 -319 -324
-254 -333 -431 -451 -737 -495 -46 -7 -245 -6 -305 1 -36 4 -92 16 -125 26
-63 21 -249 111 -276 135 -8 8 -18 14 -22 14 -3 0 -109 66 -234 147 -375 241
-467 292 -597 332 -137 42 -216 24 -277 -65 -87 -127 -77 -256 34 -423 38 -57
228 -296 247 -311 4 -3 34 -41 68 -86 230 -303 229 -525 -3 -747 -201 -192
-452 -191 -725 3 -96 68 -238 211 -339 341 -45 57 -81 107 -81 111 0 4 29 -4
65 -17 128 -46 293 -77 411 -77 137 0 244 61 259 149 17 102 -21 205 -160 438
-106 177 -164 302 -185 395 -7 30 -16 69 -20 85 -4 17 -8 62 -9 100 -1 39 -6
74 -11 78 -20 21 -91 -29 -225 -157 -95 -92 -265 -249 -321 -297 -28 -24 -68
-59 -90 -78 -180 -156 -425 -314 -601 -387 -143 -59 -234 -78 -373 -78 -163 1
-308 57 -435 169 -16 15 -158 153 -315 309 -518 512 -823 761 -1158 946 -62
35 -111 64 -110 65 7 7 247 16 393 15 198 -1 313 -8 435 -25 14 -2 45 -7 70
-10 81 -11 213 -43 309 -75 270 -88 466 -228 597 -427 113 -171 236 -287 353
-334 72 -28 191 -34 263 -13 106 31 229 113 331 219 22 22 87 96 145 165 59
69 119 139 135 155 44 48 172 217 191 252 9 18 16 45 16 61 0 28 -6 32 -112
77 -109 47 -327 122 -378 131 -14 3 -43 10 -65 16 -60 15 -92 22 -195 37 -164
25 -221 28 -375 26 -166 -4 -193 -6 -310 -25 -83 -13 -262 -63 -324 -91 -24
-10 -46 -18 -48 -16 -10 10 201 260 288 342 176 165 353 271 529 319 83 23
108 26 200 27 268 1 532 -135 771 -398 41 -45 146 -178 151 -192 1 -5 9 -11
17 -13 42 -9 26 134 -28 264 -177 421 -625 690 -1151 691 -277 1 -470 -61
-973 -311 -181 -90 -341 -168 -355 -174 -209 -82 -333 -107 -432 -88 -78 16
-87 18 -131 33 -379 130 -938 533 -1299 937 -59 67 -197 255 -239 327 -37 64
-81 156 -81 170 0 2 17 -8 38 -24 182 -142 507 -324 742 -416 290 -113 544
-166 772 -161 216 5 355 44 546 152 164 93 386 163 577 179 137 13 375 6 480
-12 224 -40 346 -71 555 -142 113 -38 315 -117 460 -180 19 -8 44 -19 55 -24
54 -23 149 -49 162 -45 10 4 2 17 -29 44 -24 20 -62 54 -83 73 -172 156 -275
237 -412 322 -287 177 -584 272 -953 302 -72 6 -325 7 -380 1 -19 -2 -69 -7
-110 -10 -74 -7 -122 -13 -170 -22 -14 -2 -42 -7 -62 -10 -36 -6 -253 -51
-273 -58 -8 -2 -75 -17 -95 -21 -20 -4 -65 -22 -127 -51 -144 -68 -242 -92
-358 -88 -154 4 -280 57 -527 221 -186 124 -254 159 -352 183 l-70 17 80 63
c202 162 409 262 614 300 84 16 267 16 350 1 36 -7 121 -26 190 -42 170 -41
202 -45 194 -26 -15 40 -206 174 -334 234 -101 48 -154 61 -310 78 -50 5 -118
13 -250 30 -25 3 -56 7 -70 9 -14 3 -47 7 -75 11 -27 3 -79 11 -115 16 -36 6
-78 13 -95 15 -54 9 -219 36 -240 40 -11 3 -36 7 -55 10 -54 9 -327 62 -405
79 -38 8 -79 17 -90 19 -296 59 -792 195 -1170 320 -305 101 -445 157 -445
176 0 25 75 95 138 128 86 46 171 64 297 65 123 1 176 -4 285 -28 41 -9 84
-18 95 -21 12 -2 46 -12 78 -22 31 -11 57 -16 57 -12 0 4 -6 10 -12 13 -7 2
-42 26 -78 53 -191 143 -356 315 -465 483 -136 211 -175 401 -130 641 3 14 7
43 10 65 3 22 7 51 10 65 2 13 7 40 10 60 3 19 9 64 14 100 5 36 8 117 7 180
-4 144 -32 239 -100 336 l-47 67 98 -6 c350 -22 511 -215 562 -677 12 -110 19
-177 26 -275 26 -335 61 -505 135 -660 51 -108 161 -228 249 -275 22 -11 23
-10 18 6 -3 11 -17 53 -30 94 -57 179 -22 354 98 488 26 29 50 52 54 52 4 0
18 -25 31 -57 128 -309 407 -564 743 -679 l67 -23 34 29 c18 16 51 57 74 91
l42 62 -19 26 c-37 52 -110 212 -149 328 -54 159 -89 315 -109 494 -16 132 -7
681 13 779 1 8 3 27 3 43 2 63 65 13 137 -108 37 -63 109 -209 144 -296 29
-68 94 -284 106 -350 6 -31 64 -244 88 -324 43 -146 133 -351 188 -429 4 -6
40 -56 80 -111 40 -55 80 -110 88 -122 8 -11 44 -63 79 -115 94 -137 157 -216
220 -276 l56 -54 13 32 c26 64 33 199 18 335 -8 75 -26 203 -31 225 -1 3 -5
25 -9 50 -5 25 -10 54 -12 65 -4 19 -7 38 -20 150 -26 212 23 428 136 598 44
67 156 195 163 186 2 -2 14 -31 27 -64 53 -133 133 -260 210 -334 19 -18 75
-60 123 -93 152 -102 157 -111 187 -323 17 -121 21 -344 7 -400 -51 -204 -2
-388 145 -551 46 -51 169 -146 333 -255 77 -52 145 -97 150 -102 56 -44 146
-103 220 -142 96 -51 124 -66 400 -216 117 -63 147 -80 280 -159 382 -228 607
-420 790 -675 31 -44 60 -81 64 -83 12 -4 5 148 -8 198 -29 102 -108 222 -210
318 -123 116 -219 186 -656 475 -278 184 -290 192 -435 306 -380 299 -589 587
-681 941 -37 142 -47 381 -24 542 7 46 12 143 10 214 -2 71 -4 215 -6 320 -2
142 -7 209 -21 265 -16 65 -57 166 -80 194 -4 6 -28 35 -52 66 -25 31 -91 99
-147 152 l-103 97 50 -6 c186 -19 378 -95 526 -209 14 -11 41 -31 59 -45 57
-42 212 -201 280 -285 35 -44 95 -127 133 -185 38 -58 77 -116 86 -130 53 -79
195 -362 263 -520 71 -168 154 -407 182 -531 83 -358 128 -439 403 -731 190
-200 286 -316 395 -472 120 -173 119 -172 103 -111 -8 28 -32 113 -54 190 -90
310 -162 651 -187 880 -4 33 -8 71 -10 85 -5 30 -16 166 -20 235 -5 72 -5 442
-1 495 3 25 7 83 11 128 4 46 8 91 10 101 2 9 6 44 10 76 8 65 10 75 25 150 5
28 12 65 15 83 12 74 77 306 121 432 71 206 165 408 281 604 44 75 42 77 91
-69z m-4925 -1150 c3 -121 8 -231 11 -245 3 -14 7 -43 10 -65 6 -54 19 -108
61 -255 59 -207 55 -226 -33 -148 -203 181 -378 403 -413 521 -19 66 11 110
161 238 41 35 102 89 135 121 33 31 60 56 61 55 1 -1 4 -101 7 -222z m10252
-329 c89 -73 363 -305 398 -336 13 -12 -95 -122 -217 -222 -61 -50 -116 -97
-121 -103 -9 -10 -24 -4 -70 26 -33 22 -91 56 -130 75 -38 20 -74 40 -78 44
-5 4 -2 43 7 86 27 130 33 167 42 259 3 33 12 105 20 159 8 55 14 103 14 108
0 13 14 3 135 -96z m-142 -734 l68 -46 -28 -26 c-44 -41 -183 -144 -234 -173
-42 -25 -89 -36 -89 -21 0 3 29 72 65 152 36 81 70 157 75 170 10 22 11 22 42
6 18 -9 64 -37 101 -62z m1856 -349 c-28 -121 -24 -103 -49 -198 -34 -128 -88
-290 -147 -440 -143 -363 -413 -816 -486 -815 -37 1 -58 16 -78 58 -36 74 -49
170 -44 342 4 167 8 204 30 320 9 41 17 85 19 96 3 12 14 58 26 102 l22 80
103 51 c163 81 304 181 440 310 80 76 175 181 175 194 0 6 3 8 6 4 3 -3 -4
-50 -17 -104z m-13891 28 c45 -31 188 -95 372 -165 174 -66 176 -67 188 -104
21 -61 60 -214 67 -257 3 -22 9 -64 14 -93 9 -60 7 -316 -3 -377 -28 -159 -81
-274 -135 -293 -26 -9 -33 -7 -53 13 -59 58 -198 370 -304 680 -40 117 -184
593 -184 609 0 10 11 7 38 -13z"/>
<path d="M10043 23216 c-76 -24 -172 -86 -242 -156 -181 -183 -247 -492 -146
-691 86 -170 297 -304 511 -324 92 -9 122 1 232 79 48 34 104 72 125 85 54 33
64 56 33 77 -25 16 -39 16 -156 -3 -166 -27 -312 29 -412 157 -73 93 -75 83
50 206 135 134 262 256 325 311 l48 41 -65 84 c-35 46 -77 92 -91 103 -60 44
-134 55 -212 31z m-11 -153 c24 -38 78 -93 121 -123 20 -14 36 -28 34 -32 -4
-13 -270 -288 -278 -288 -7 0 -22 45 -35 105 -3 11 -8 52 -11 91 -5 62 -3 78
19 125 21 45 110 149 128 149 3 0 13 -12 22 -27z"/>
<path d="M11210 23133 c-137 -18 -289 -98 -412 -219 -158 -155 -157 -279 5
-436 54 -53 71 -76 63 -83 -44 -38 -125 -112 -211 -193 l-99 -94 24 -19 c60
-46 237 -119 327 -136 158 -29 404 47 576 177 195 147 218 281 72 424 -34 34
-87 74 -117 89 l-57 29 97 78 c53 43 117 97 142 120 l45 41 -40 35 c-22 20
-51 46 -65 58 -105 92 -242 142 -350 129z m-68 -232 c82 -39 199 -123 190
-137 -11 -15 -105 -90 -127 -101 -31 -16 -126 -9 -170 12 -43 21 -96 72 -139
133 -23 34 -25 43 -15 65 6 14 30 35 53 46 59 28 126 22 208 -18z m96 -505
c148 -75 171 -100 158 -172 -9 -43 -45 -85 -103 -119 -40 -24 -53 -27 -106
-22 -40 4 -84 17 -132 41 -73 36 -175 118 -175 139 1 17 212 186 233 186 9 1
66 -23 125 -53z"/>
<path d="M9270 23076 c-8 -8 -60 -42 -114 -75 -87 -53 -102 -59 -115 -47 -9 8
-52 34 -96 58 -44 24 -90 50 -101 58 -19 11 -24 11 -36 -1 -8 -8 -30 -25 -49
-39 -46 -34 -106 -87 -153 -134 l-40 -40 55 -13 c79 -20 136 -49 156 -80 16
-24 17 -58 15 -398 -3 -316 -1 -373 11 -378 20 -8 227 -6 229 2 0 3 2 177 4
386 1 209 3 392 3 407 1 21 11 32 46 52 l45 25 38 -42 c79 -89 133 -137 145
-130 35 21 176 126 205 151 17 16 32 38 32 49 0 24 -29 35 -55 20 -16 -8 -32
5 -109 87 -50 53 -93 97 -96 96 -3 0 -12 -6 -20 -14z"/>
<path d="M8281 23013 c-10 -19 -11 -25 -11 -48 0 -8 -11 -22 -24 -30 -22 -15
-31 -14 -113 5 -110 27 -108 26 -168 35 -99 14 -222 12 -289 -5 -159 -42 -362
-234 -424 -402 -28 -75 -32 -99 -33 -183 -1 -192 43 -328 131 -414 60 -58 249
-167 315 -181 68 -15 191 -13 270 4 17 3 39 8 50 10 11 2 67 16 125 32 124 32
149 29 181 -23 49 -83 107 -119 123 -77 9 23 -2 52 -38 103 l-31 43 0 235 c0
198 -2 236 -15 242 -17 8 -27 8 -50 -3 -12 -5 -16 -25 -18 -82 -4 -125 -48
-215 -144 -298 -60 -52 -78 -63 -143 -87 -169 -62 -366 52 -441 256 -10 26
-15 49 -30 115 -15 71 -13 208 5 267 22 74 63 163 92 205 34 47 133 115 194
133 97 28 229 2 313 -61 100 -76 118 -120 150 -363 8 -60 34 -82 68 -56 17 12
18 36 19 316 1 180 -2 309 -8 317 -14 18 -45 15 -56 -5z"/>
<path d="M11841 22554 c-19 -24 -20 -30 -8 -48 22 -34 64 -48 153 -54 81 -4
84 -4 92 19 12 31 -3 54 -48 74 -37 17 -49 19 -122 29 -42 6 -48 4 -67 -20z"/>
<path d="M11830 22375 c-17 -21 -5 -43 36 -67 33 -19 64 -26 145 -35 51 -5 58
-3 68 15 9 16 8 26 -1 41 -30 48 -218 82 -248 46z"/>
<path d="M10586 21838 c-3 -7 -7 -25 -10 -40 -7 -30 -42 -46 -96 -42 -234 17
-360 -4 -466 -77 -168 -115 -234 -263 -172 -387 29 -59 80 -97 193 -146 115
-49 109 -47 245 -97 139 -51 156 -59 197 -95 89 -81 92 -227 7 -301 -45 -40
-112 -55 -219 -48 -150 9 -255 42 -308 97 -47 49 -85 123 -99 193 -10 51 -37
95 -58 95 -5 0 -17 -11 -25 -24 -14 -21 -15 -45 -11 -143 13 -258 28 -358 56
-373 29 -15 47 -2 66 46 21 54 57 69 147 59 64 -7 76 -8 162 -22 28 -4 95 -8
150 -8 112 1 150 14 215 76 155 149 192 438 76 591 -59 77 -120 104 -311 138
-154 27 -161 29 -208 47 -144 55 -158 152 -34 237 63 44 103 56 180 56 109 0
282 -91 340 -179 32 -48 44 -51 57 -15 13 33 13 155 0 188 -5 14 -12 47 -16
73 -10 73 -12 84 -25 99 -14 17 -28 18 -33 2z"/>
<path d="M9388 21768 c-7 -13 -21 -40 -33 -60 -39 -73 -145 -214 -203 -273
-32 -32 -86 -73 -118 -91 -70 -38 -76 -60 -22 -78 20 -7 49 -22 65 -34 l28
-20 0 -279 c0 -288 5 -332 46 -414 21 -43 89 -106 135 -125 64 -27 92 -19 148
39 72 75 132 149 140 174 9 28 -13 36 -49 17 -43 -22 -68 -16 -124 31 -34 29
-40 50 -56 175 -4 30 -9 64 -11 75 -2 11 -7 67 -10 125 -4 58 -8 114 -9 125
-3 41 12 52 82 59 37 4 88 9 113 12 25 3 74 8 110 12 62 7 65 8 71 37 11 57
-4 67 -79 60 -147 -14 -220 -15 -232 0 -6 7 -13 56 -15 108 -4 102 9 179 45
260 29 65 10 122 -22 65z"/>
<path d="M11727 21721 l-57 -56 0 -80 c0 -81 0 -81 41 -124 35 -39 45 -44 84
-44 38 0 49 5 92 49 l49 49 -2 69 -2 68 -63 64 c-35 35 -68 63 -74 63 -5 -1
-36 -27 -68 -58z"/>
<path d="M7617 21511 c-64 -33 -133 -72 -154 -88 -21 -15 -44 -32 -52 -38 -8
-5 -49 -44 -91 -85 -63 -61 -85 -93 -123 -170 -59 -120 -78 -190 -83 -312 -6
-159 35 -260 150 -364 143 -130 256 -170 418 -148 41 6 47 10 65 48 11 22 45
75 75 116 l54 76 -86 -3 c-140 -3 -250 36 -353 128 -89 79 -138 193 -139 320
-1 120 37 234 99 295 43 43 85 48 153 16 34 -16 129 -106 158 -150 l15 -23 56
58 c32 32 76 75 100 95 l43 37 -87 118 c-48 65 -91 122 -95 126 -3 4 -59 -19
-123 -52z"/>
<path d="M8440 21451 c-116 -44 -254 -161 -316 -267 -21 -36 -27 -58 -26 -107
1 -116 24 -201 63 -230 l28 -20 -62 -63 c-82 -82 -111 -140 -111 -219 0 -38 8
-77 21 -106 24 -53 112 -145 167 -173 l37 -20 16 24 c46 66 164 145 246 164
24 6 27 4 28 -21 1 -64 31 -135 71 -172 l21 -20 51 48 c60 58 179 167 205 190
26 23 35 57 17 64 -9 4 -22 0 -30 -8 -20 -21 -55 -19 -94 5 l-34 21 6 277 c3
152 8 300 11 328 7 54 3 61 -132 244 -55 74 -104 91 -183 61z m-41 -192 c38
-38 83 -103 99 -144 7 -16 13 -75 15 -129 l2 -99 -64 -33 c-79 -41 -132 -40
-186 3 -45 35 -95 108 -96 142 -1 14 -2 42 -3 61 -1 19 2 46 8 60 26 64 137
170 177 170 9 0 31 -14 48 -31z m121 -586 l0 -148 -52 -16 c-51 -16 -52 -16
-97 9 -113 62 -142 87 -160 135 -12 31 -3 61 28 94 19 20 22 20 63 6 54 -18
89 -11 158 31 30 19 56 35 58 35 1 1 2 -65 2 -146z"/>
<path d="M11245 21428 c-24 -14 -133 -99 -225 -176 -182 -153 -253 -359 -191
-552 35 -112 96 -195 187 -256 64 -43 108 -61 189 -78 l65 -13 26 46 c15 25
52 83 83 129 31 46 66 99 77 119 43 71 -6 103 -51 34 -18 -27 -35 -40 -55 -43
-69 -10 -203 50 -269 121 -83 89 -126 278 -83 361 12 22 35 44 63 58 40 20 56
22 174 21 154 -3 181 7 214 74 22 46 26 67 13 67 -4 0 -47 23 -95 50 -96 55
-94 54 -122 38z"/>
<path d="M11827 21270 c-14 -5 -173 -149 -248 -224 -61 -61 -48 -92 23 -57
l41 20 63 -41 64 -40 1 -236 c1 -131 0 -253 -1 -272 -2 -56 16 -88 87 -156
l67 -62 30 21 c43 31 231 216 225 222 -3 2 -23 7 -45 11 -48 7 -102 29 -127
51 -17 16 -18 36 -16 313 l3 295 -55 82 c-54 83 -66 91 -112 73z"/>
<path d="M10432 20248 c-29 -46 -102 -114 -147 -135 -19 -9 -35 -20 -35 -23 0
-14 194 -170 210 -170 5 0 16 10 24 22 8 11 52 59 96 105 68 69 79 84 63 89
-82 29 -138 69 -174 123 l-15 24 -22 -35z"/>
<path d="M9822 20134 c-6 -10 -38 -72 -71 -137 -33 -65 -76 -141 -96 -168 -19
-27 -35 -51 -35 -54 0 -6 -46 -60 -82 -95 -42 -41 -37 -72 20 -115 l47 -37 1
-231 c0 -239 8 -305 44 -377 21 -42 42 -61 96 -89 63 -33 114 -36 147 -11 15
12 27 27 27 34 0 15 95 152 136 199 46 50 63 78 57 93 -8 21 -25 17 -63 -14
-73 -60 -111 -62 -173 -11 -27 22 -38 41 -47 82 -14 66 -22 273 -12 312 9 32
17 35 162 50 30 3 60 12 66 20 13 17 7 66 -9 77 -6 3 -46 7 -89 7 -122 1 -131
5 -131 61 0 26 15 175 18 180 4 6 13 76 20 150 4 39 1 61 -9 75 -13 18 -14 18
-24 -1z"/>
<path d="M7842 19920 c-186 -112 -277 -186 -358 -293 -160 -211 -183 -461 -63
-675 63 -112 261 -282 390 -336 l37 -15 46 82 c26 45 83 130 127 190 46 62 79
115 77 125 -5 23 -54 19 -82 -6 -38 -35 -70 -46 -125 -44 -106 4 -208 55 -269
133 -11 15 -7 21 27 46 34 25 219 175 336 273 23 19 64 53 90 75 27 22 60 50
74 61 l25 21 -40 49 c-86 103 -155 216 -190 312 l-20 51 -82 -49z m-51 -292
c28 -47 72 -109 97 -138 25 -29 41 -55 36 -60 -76 -70 -352 -272 -363 -265 -4
2 -23 34 -42 71 -31 62 -34 76 -34 153 0 76 3 92 28 137 46 83 203 226 220
201 4 -7 30 -51 58 -99z"/>
<path d="M11499 19926 c-25 -7 -67 -24 -93 -40 -110 -64 -259 -206 -269 -255
-13 -66 22 -268 49 -278 10 -4 0 -23 -36 -68 -74 -93 -103 -164 -106 -256 -5
-134 39 -242 123 -302 l42 -30 88 61 c101 69 184 113 261 138 l54 17 24 -26
c13 -14 41 -38 61 -54 21 -15 44 -34 51 -40 7 -7 17 -13 21 -13 5 0 25 -13 45
-29 l36 -29 38 36 c34 34 85 80 171 155 37 32 41 75 6 69 -11 -2 -22 -8 -25
-12 -13 -21 -56 -28 -94 -15 -59 20 -65 31 -72 130 -3 50 -8 106 -10 125 -5
50 -16 292 -18 375 -1 69 -2 71 -55 135 -79 96 -182 195 -216 207 -21 7 -43 7
-76 -1z m-54 -271 c67 -46 103 -85 114 -122 10 -34 7 -230 -3 -240 -10 -10
-125 16 -170 39 -72 36 -135 90 -147 125 -6 18 -10 57 -10 87 0 42 6 64 31
105 17 28 39 55 48 60 21 12 69 -7 137 -54z m-113 -407 c35 -19 60 -23 133
-24 89 -1 90 -1 88 -25 -3 -34 -3 -150 0 -178 2 -21 -6 -26 -78 -48 -124 -39
-114 -40 -174 18 -59 58 -89 114 -85 157 1 15 2 32 3 39 1 11 59 83 67 83 2 0
23 -10 46 -22z"/>
<path d="M8475 19812 c-39 -37 -94 -88 -123 -113 l-53 -46 45 -49 c25 -27 59
-75 75 -107 l30 -57 1 -208 c3 -406 6 -517 12 -528 4 -6 48 -11 105 -13 l98
-2 0 406 0 405 36 33 c86 77 76 74 136 41 76 -41 96 -65 99 -121 9 -135 5
-405 -6 -463 -23 -120 -13 -208 32 -310 11 -25 22 -47 24 -49 2 -2 27 17 56
42 30 25 100 81 158 124 113 85 134 108 110 123 -8 5 -17 7 -20 5 -4 -2 -27
-7 -53 -10 l-47 -7 -1 34 c0 18 -2 49 -3 68 -14 186 -22 327 -31 517 -7 163
-45 245 -142 310 -21 14 -26 13 -70 -24 -27 -22 -86 -68 -133 -103 -47 -35
-86 -68 -88 -72 -12 -28 -59 36 -137 185 -16 31 -32 57 -35 57 -3 0 -37 -31
-75 -68z"/>
<path d="M10502 19836 c-117 -97 -264 -245 -259 -259 5 -15 54 -10 80 8 18 13
28 10 98 -26 44 -23 81 -44 83 -48 3 -4 6 -126 7 -272 1 -145 5 -273 9 -284
10 -26 33 -50 99 -104 l53 -44 72 74 c117 121 140 150 124 160 -7 5 -23 9 -35
9 -15 0 -33 14 -51 39 l-28 39 -3 252 -2 252 -79 118 c-90 134 -103 141 -168
86z"/>
<path d="M15375 23538 l-70 -62 2 -85 3 -85 42 -43 c37 -38 47 -43 87 -43 38
0 51 6 97 46 l54 46 0 72 0 72 -72 71 -73 72 -70 -61z"/>
<path d="M14808 23405 c-2 -1 -43 -5 -93 -9 -135 -11 -182 -18 -214 -36 -40
-21 -17 -44 57 -56 50 -8 78 -33 104 -93 25 -58 24 -114 -2 -216 -34 -133
-121 -389 -174 -510 l-13 -30 -71 145 c-73 149 -164 363 -181 427 -10 34 -8
38 24 69 19 18 52 38 72 44 55 18 83 38 83 60 0 31 -22 38 -180 55 -25 3 -65
7 -90 10 -73 8 -136 14 -223 20 -45 4 -89 8 -97 10 -8 2 -53 7 -100 11 -47 3
-106 10 -132 14 -57 8 -108 -10 -108 -39 0 -29 14 -34 99 -36 42 -1 92 -7 113
-14 78 -26 163 -151 313 -466 41 -86 75 -158 75 -160 0 -2 17 -41 39 -87 75
-162 195 -465 231 -583 7 -22 16 -44 20 -48 6 -7 39 76 166 423 46 127 205
607 239 723 58 198 97 244 263 308 28 11 39 36 23 52 -10 10 -232 22 -243 12z"/>
<path d="M16440 23308 c-6 -7 -27 -41 -48 -75 -84 -142 -239 -297 -362 -362
-52 -28 -59 -35 -50 -51 11 -21 59 -58 103 -80 25 -13 27 -17 28 -84 1 -39 2
-89 4 -111 22 -358 54 -546 110 -661 37 -76 107 -153 139 -155 54 -3 60 3 138
128 29 47 65 100 81 118 33 39 35 80 6 95 -16 9 -26 8 -44 -4 -35 -23 -51 -20
-78 17 -34 45 -40 70 -52 222 -4 44 -8 91 -11 105 -10 56 -16 338 -7 343 5 3
36 8 68 12 33 4 71 8 85 10 14 2 50 6 80 10 30 3 71 8 90 10 19 3 67 7 105 11
39 3 75 10 80 15 16 12 18 79 3 84 -7 3 -111 6 -230 7 -143 2 -221 7 -228 14
-14 14 -23 65 -23 129 0 63 5 84 36 166 17 46 22 70 15 82 -11 20 -23 22 -38
5z"/>
<path d="M15259 23037 c-67 -60 -164 -144 -199 -173 -40 -34 -79 -76 -80 -86
0 -15 58 -8 81 11 24 18 24 18 124 -40 55 -32 103 -60 107 -61 4 -2 9 -140 13
-308 l5 -305 33 -52 c17 -28 54 -74 80 -102 l48 -51 89 0 c81 0 89 2 103 24 9
13 22 29 29 37 24 25 139 181 136 185 -2 1 -15 5 -28 7 -92 18 -136 39 -204
99 l-50 44 3 307 2 307 -95 95 c-111 111 -134 118 -197 62z"/>
<path d="M17387 22770 c-81 -31 -197 -132 -281 -243 -61 -82 -46 -151 42 -196
28 -15 28 -32 -2 -60 -53 -49 -136 -256 -136 -336 0 -46 26 -132 59 -200 34
-67 118 -185 133 -185 5 0 46 27 91 59 95 68 168 107 250 132 l58 17 10 -26
c24 -62 42 -91 83 -131 l43 -42 99 108 c140 152 144 157 144 165 0 5 -4 8 -8
8 -5 0 -43 34 -86 76 l-78 76 6 266 c3 147 8 288 12 313 l6 46 -63 47 c-147
111 -276 146 -382 106z m48 -200 c28 -16 72 -48 98 -70 52 -46 55 -57 60 -222
2 -94 2 -98 -18 -92 -81 24 -358 164 -409 208 l-40 33 32 49 c41 64 83 111
117 134 25 16 31 17 68 4 22 -8 63 -27 92 -44z m52 -411 c41 -16 80 -29 88
-29 11 0 15 -29 17 -155 l3 -154 -50 -12 c-27 -6 -72 -20 -99 -31 l-49 -19
-24 23 c-98 92 -150 264 -115 383 25 89 23 88 94 53 34 -16 95 -43 135 -59z"/>
<path d="M14556 21615 c-4 -16 -16 -27 -39 -33 -35 -10 -46 -9 -122 3 -103 18
-253 7 -421 -31 -185 -41 -287 -88 -409 -191 -126 -106 -208 -226 -243 -355
-10 -37 -8 -217 3 -273 25 -132 78 -228 157 -289 40 -30 211 -127 253 -143
162 -63 393 -64 653 -3 126 30 150 26 156 -26 2 -16 4 -32 5 -36 1 -11 49 -10
55 1 3 5 7 113 8 241 3 214 1 232 -15 242 -25 14 -47 -7 -47 -46 0 -78 -101
-216 -190 -261 -137 -70 -289 -67 -437 6 -124 62 -238 184 -286 307 -36 91
-13 125 85 125 57 1 160 -8 220 -18 44 -7 183 -24 253 -30 192 -16 313 -35
350 -52 59 -28 62 -22 64 146 2 170 -1 176 -64 147 -40 -19 -116 -37 -290 -66
-66 -12 -131 -23 -145 -25 -54 -10 -210 -19 -311 -19 -129 0 -165 13 -178 60
-29 106 50 263 179 355 199 142 496 127 652 -33 59 -61 89 -116 97 -182 7 -54
29 -78 54 -58 20 17 25 541 5 553 -24 16 -46 9 -52 -16z"/>
<path d="M15598 21458 c-51 -49 -109 -103 -130 -119 l-36 -29 -26 44 c-33 57
-112 114 -200 146 -26 10 -33 7 -75 -28 -109 -90 -309 -229 -353 -245 -23 -8
-34 -53 -18 -72 15 -18 39 -13 95 23 22 14 66 41 98 59 l58 33 39 -20 c162
-82 230 -295 175 -545 -27 -119 -103 -271 -178 -352 -22 -24 -37 -46 -34 -49
12 -12 140 60 185 104 27 26 79 93 117 150 l69 103 41 -47 c88 -104 234 -234
263 -234 18 0 292 279 292 297 0 5 -24 17 -52 28 -68 24 -167 77 -243 130
-164 116 -232 262 -179 383 l19 42 35 -23 c58 -39 150 -69 226 -72 107 -5 172
25 248 112 18 22 18 22 -46 51 -98 44 -177 98 -240 162 l-56 58 -94 -90z"/>
<path d="M16648 21303 c-213 -118 -376 -260 -437 -380 -37 -75 -52 -273 -27
-381 15 -68 75 -163 182 -292 89 -106 148 -140 257 -145 64 -3 69 -2 117 34
28 21 103 87 167 147 191 179 185 172 159 193 -12 10 -22 5 -54 -23 -32 -29
-49 -37 -98 -42 -92 -11 -195 -7 -240 10 -127 45 -259 178 -293 295 -38 133
19 286 141 373 l31 21 41 -45 c57 -62 104 -95 151 -104 22 -5 42 -8 45 -7 3 0
23 3 45 6 64 9 160 50 168 72 2 5 -62 76 -144 156 l-147 147 -64 -35z"/>
<path d="M17614 21180 c-267 -133 -428 -361 -441 -625 -6 -120 9 -190 69 -314
30 -62 57 -101 108 -151 77 -77 122 -104 212 -125 74 -17 78 -15 173 76 76 72
141 127 187 158 28 20 72 84 83 121 1 3 16 35 33 72 53 114 75 209 69 302 -5
90 -6 96 -36 180 -56 161 -198 307 -336 350 -14 4 -54 -11 -121 -44z m6 -227
c82 -48 199 -163 230 -226 56 -119 17 -404 -75 -540 -26 -37 -26 -37 -53 -20
-83 53 -216 174 -269 246 -91 124 -114 331 -50 454 24 45 107 123 132 123 11
0 50 -17 85 -37z"/>
<path d="M18263 20735 c-25 -18 -30 -57 -10 -72 31 -25 230 -52 256 -35 11 8
11 16 1 46 -10 31 -18 38 -61 50 -84 25 -161 30 -186 11z"/>
<path d="M18263 20550 c-31 -13 -39 -48 -17 -71 21 -20 144 -46 214 -45 39 1
45 4 48 24 6 38 -21 66 -74 80 -71 17 -146 23 -171 12z"/>
<path d="M13394 20139 c-4 -8 -2 -115 11 -429 10 -239 17 -513 19 -710 2 -174
6 -221 19 -245 17 -32 77 -92 144 -144 l42 -32 67 88 c38 49 99 118 136 154
93 90 91 117 -5 92 -43 -11 -54 -10 -85 4 -64 31 -64 23 -63 643 0 179 0 378
1 443 1 65 -1 121 -4 125 -4 3 -59 7 -124 9 -64 2 -125 5 -134 7 -10 2 -20 0
-24 -5z"/>
<path d="M15578 20103 c-9 -10 -23 -33 -33 -52 -28 -55 -173 -194 -260 -249
-111 -70 -118 -77 -103 -102 7 -10 39 -34 71 -52 l58 -33 -7 -165 c-16 -408
-6 -562 43 -638 46 -71 147 -119 226 -109 49 7 93 41 159 123 29 37 66 80 81
97 15 17 26 38 25 46 -5 23 -36 26 -59 5 -42 -38 -173 -23 -198 24 -16 30 -30
521 -18 597 4 18 13 20 108 23 57 1 107 6 112 11 14 14 17 57 4 74 -8 12 -33
19 -77 22 -78 7 -126 21 -133 39 -5 13 0 126 6 156 2 8 7 33 12 55 4 22 14 55
22 73 10 24 11 38 3 52 -13 25 -22 25 -42 3z"/>
<path d="M14505 19871 c-101 -50 -311 -289 -317 -362 -4 -66 13 -158 38 -195
l24 -35 -26 -27 c-48 -52 -116 -164 -140 -230 -27 -79 -26 -148 7 -244 19 -57
79 -160 100 -174 10 -6 58 27 114 77 73 66 93 83 145 119 51 35 127 75 157 82
7 2 20 -13 30 -32 17 -32 85 -92 140 -121 26 -14 22 -18 108 86 28 33 52 62
55 65 3 3 27 32 55 65 27 33 53 62 58 63 7 4 37 56 37 67 0 10 -38 5 -69 -11
-18 -9 -42 -13 -59 -9 -28 6 -121 88 -123 108 -2 42 2 422 6 471 l5 61 -76 83
c-115 125 -166 143 -269 93z m-37 -213 c50 -29 94 -66 117 -102 15 -22 19 -54
23 -156 l5 -129 -28 -7 c-14 -4 -57 -4 -93 -2 -71 5 -124 27 -180 75 -33 28
-34 30 -36 115 -3 94 5 124 49 176 47 56 81 63 143 30z m0 -474 c20 2 61 8 90
12 l52 7 0 -96 0 -96 -57 -34 c-68 -41 -139 -77 -150 -77 -28 1 -102 97 -101
132 0 23 21 97 38 134 l20 43 35 -15 c20 -8 52 -13 73 -10z"/>
<path d="M16046 19612 c-66 -59 -121 -112 -123 -117 -2 -6 9 -12 24 -13 41 -3
114 -43 136 -73 31 -43 36 -100 31 -334 -6 -296 -7 -292 117 -412 l54 -52 60
18 c95 30 347 143 380 171 8 7 15 -5 24 -39 14 -55 95 -148 149 -170 29 -12
33 -11 121 61 l91 73 -24 20 c-71 60 -83 175 -62 614 l5 105 -41 55 c-49 65
-142 160 -181 186 l-27 17 -48 -43 c-26 -24 -85 -81 -131 -126 l-84 -83 44 -1
c65 -1 98 -8 139 -29 65 -33 65 -33 66 -254 1 -111 -2 -216 -7 -233 -14 -49
-74 -76 -164 -75 -87 2 -193 33 -228 67 -24 25 -25 30 -22 133 2 59 6 154 10
212 15 241 18 218 -30 285 -48 68 -132 146 -155 145 -3 0 -59 -49 -124 -108z"/>
<path d="M17417 19468 c-68 -57 -141 -117 -163 -135 l-39 -32 35 -1 c123 -5
231 -58 248 -123 4 -17 8 -193 7 -389 -1 -196 1 -362 5 -368 7 -12 213 -16
242 -5 13 5 16 55 17 392 1 213 4 390 7 394 2 4 24 18 47 32 l44 24 84 -81
c47 -45 99 -92 116 -104 l31 -22 73 61 c125 104 180 162 177 184 -3 22 -44 33
-61 16 -7 -7 -24 2 -56 32 -43 39 -80 70 -157 132 -18 14 -37 25 -43 25 -6 0
-44 -24 -84 -53 -39 -29 -92 -65 -117 -80 l-44 -26 -86 87 c-82 85 -145 142
-155 142 -2 0 -60 -46 -128 -102z"/>
<path d="M12768 16485 c-2 -2 -30 -5 -63 -9 -101 -11 -205 -49 -295 -110 -77
-51 -88 -80 -43 -115 37 -30 96 -21 196 29 44 22 81 40 84 40 2 0 -7 -15 -20
-32 -29 -40 -36 -57 -42 -114 -8 -59 8 -112 51 -174 l35 -51 -38 7 c-35 6
-145 41 -185 58 -14 6 -18 3 -18 -13 0 -29 39 -64 113 -100 192 -94 355 -69
634 95 129 76 243 131 323 157 l65 20 -35 10 c-139 37 -201 65 -425 188 -91
51 -176 89 -214 96 -59 11 -121 20 -123 18z m241 -185 c47 -23 125 -64 174
-93 l87 -51 -172 -88 c-95 -48 -177 -88 -181 -88 -4 0 2 10 13 22 34 37 74
128 72 164 -4 48 -29 104 -65 142 -17 17 -27 32 -23 32 4 0 47 -18 95 -40z"/>
</g>
</svg>
